<?xml version="1.0" standalone="no"?><!DOCTYPE svg PUBLIC "-//W3C//DTD SVG 1.1//EN" "http://www.w3.org/Graphics/SVG/1.1/DTD/svg11.dtd"><svg t="1739543614192" class="icon" viewBox="0 0 1024 1024" version="1.1" xmlns="http://www.w3.org/2000/svg" p-id="15509" xmlns:xlink="http://www.w3.org/1999/xlink" width="48" height="48"><path d="M512 512m-512 0a512 512 0 1 0 1024 0 512 512 0 1 0-1024 0Z" fill="#666666" p-id="15510"></path><path d="M196.608 214.016s20.48 28.672 47.104 63.488 80.896 108.544 122.88 163.84l75.776 100.352-5.12 5.12c-3.072 3.072-58.368 62.464-122.88 133.12C247.808 750.592 194.56 808.96 194.56 808.96c0 1.024 11.264 1.024 27.648 1.024h27.648l9.216-10.24c5.12-5.12 52.224-56.32 104.448-113.664s97.28-105.472 99.328-107.52l3.072-4.096 25.6 34.816c14.336 19.456 54.272 71.68 88.064 117.76l61.44 81.92h94.208c78.848 0 94.208 0 94.208-2.048 0-1.024-24.576-33.792-53.248-71.68-28.672-38.912-62.464-82.944-73.728-98.304-11.264-15.36-46.08-61.44-75.776-101.376-30.72-39.936-55.296-73.728-55.296-74.752 0-1.024 159.744-174.08 214.016-232.448l15.36-16.384h-57.344l-32.768 35.84c-18.432 19.456-62.464 68.608-99.328 107.52l-65.536 71.68-79.872-107.52L386.048 215.04l-94.208-1.024h-95.232zM419.84 329.728c30.72 40.96 78.848 105.472 105.472 141.312 27.648 36.864 88.064 117.76 135.168 180.224 47.104 62.464 86.016 114.688 86.016 115.712 1.024 1.024-8.192 2.048-41.984 2.048h-43.008l-84.992-114.688C378.88 391.168 279.552 258.048 278.528 256c-1.024-1.024 8.192-2.048 41.984-2.048h43.008l56.32 75.776z" fill="#FFFFFF" p-id="15511"></path></svg>